# xmcd
#
# Track frame offsets:
#	150
#	10445
#	32250
#	50007
#	54147
#	65810
#	80770
#	106302
#	117720
#	128505
#	139427
#	153495
#	169862
#	182277
#	193812
#	206732
#	218510
#	234157
#	242317
#	254912
#
# Disc length: 3479 seconds
#
# Revision: 1
# Processed by: cddbd v1.5.2PL0 Copyright (c) Steve Scherf et al.
# Submitted via: audiograbber 1.83.01
#
DISCID=1c0d9514
DTITLE=Lesley Schatz - Hello Stranger
DYEAR=1994
DGENRE=Bluegrass
TTITLE0=Hello Stranger
TTITLE1=Shenandoah
TTITLE2=The Wayfaring Stranger
TTITLE3=Apple Blossom Time
TTITLE4=Beautiful River Valley
TTITLE5=The Sweetest Gift
TTITLE6=The Water Is Wide
TTITLE7=Somewhere In Tennessee
TTITLE8=Froggy Went A-Courtin'
TTITLE9=Farewell To Nova Scotia
TTITLE10=Home On The Range
TTITLE11=Down In The Valley
TTITLE12=Whiskey In The Jar
TTITLE13=The Girl I Left Behind
TTITLE14=The Lily Of The West
TTITLE15=Did He Mention My Name
TTITLE16=Spanish Is A Loving Tongue
TTITLE17=Canción De Cuña
TTITLE18=La Source
TTITLE19=Brahm's Lullaby
EXTD=
EXTT0=
EXTT1=
EXTT2=
EXTT3=
EXTT4=
EXTT5=
EXTT6=
EXTT7=
EXTT8=
EXTT9=
EXTT10=
EXTT11=
EXTT12=
EXTT13=
EXTT14=
EXTT15=
EXTT16=
EXTT17=
EXTT18=
EXTT19=
PLAYORDER=
